<svg xmlns="http://www.w3.org/2000/svg" xmlns:xlink="http://www.w3.org/1999/xlink" width="126" height="56.713" viewBox="0 0 126 56.713">
  <defs>
    <linearGradient id="linear-gradient" x1="1" y1="0.184" x2="0" y2="0.833" gradientUnits="objectBoundingBox">
      <stop offset="0" stop-color="#85000a"/>
      <stop offset="0.102" stop-color="#880009"/>
      <stop offset="0.235" stop-color="#b20006"/>
      <stop offset="0.449" stop-color="#d30003"/>
      <stop offset="0.544" stop-color="#de0002"/>
      <stop offset="0.652" stop-color="#eb0001"/>
      <stop offset="0.841" stop-color="#fa0000"/>
      <stop offset="0.933" stop-color="red"/>
      <stop offset="1" stop-color="red"/>
    </linearGradient>
  </defs>
  <g id="airhublogo" transform="translate(21303.355 23141.057)">
    <g id="Grupo_1009" data-name="Grupo 1009" transform="translate(-21300 -23153)">
      <g id="PMO_logo">
        <path id="Trazado_34" data-name="Trazado 34" d="M328.656,109.44l-54.609,22.141v12.362L328.656,121.8Z" transform="translate(-206.011 -75.287)" fill="url(#linear-gradient)"/>
        <path id="Trazado_38" data-name="Trazado 38" d="M328.656,143.943,274.047,121.8V109.44l54.609,22.141Z" transform="translate(-206.011 -97.497)" fill="red"/>
      </g>
    </g>
    <path id="Trazado_1816" data-name="Trazado 1816" d="M4.905-12.87h6.177L15.8,2.2H10.745l-.7-2.509H5.285L4.61,2.2H.162ZM6.191-3.552H9.164L7.688-9.012ZM17.427-12.87h4.828V2.2H17.427Zm7.652,0h6.156a7.594,7.594,0,0,1,4.722,1.233,4.354,4.354,0,0,1,1.581,3.658v.084a4.01,4.01,0,0,1-.717,2.5,4.712,4.712,0,0,1-1.834,1.444L38.424,2.2H33.406L30.6-2.962h-.759V2.2H25.08Zm5.882,6.83q1.961,0,1.961-1.644v-.084a1.341,1.341,0,0,0-.485-1.17,2.5,2.5,0,0,0-1.455-.348H29.844V-6.04Zm9.086-6.83h4.785V-7.3h4.427V-12.87h4.785V2.2H49.259v-5.8H44.832V2.2H40.047ZM63.594,2.477A7.331,7.331,0,0,1,58.482.854,6.263,6.263,0,0,1,56.7-4.016V-12.87h4.764v8.664A7.633,7.633,0,0,0,61.56-2.92,2.518,2.518,0,0,0,61.887-2a1.394,1.394,0,0,0,.654.548,2.7,2.7,0,0,0,1.054.179A1.783,1.783,0,0,0,65.281-2,4.565,4.565,0,0,0,65.7-4.227V-12.87h4.806v8.812a8.031,8.031,0,0,1-.485,2.941A5.2,5.2,0,0,1,68.633.917,5.7,5.7,0,0,1,66.451,2.1,10,10,0,0,1,63.594,2.477Zm9.55-15.347h7.125a8.034,8.034,0,0,1,2.372.306,4.423,4.423,0,0,1,1.592.833,3.171,3.171,0,0,1,.9,1.244,4.19,4.19,0,0,1,.285,1.56v.084a3.239,3.239,0,0,1-.675,2.14A3.446,3.446,0,0,1,82.8-5.6,3.9,3.9,0,0,1,84.97-4.511a3.319,3.319,0,0,1,.843,2.435v.084a3.779,3.779,0,0,1-1.339,3.1,6.674,6.674,0,0,1-4.248,1.1H73.144ZM79.321-.938a1.919,1.919,0,0,0,1.36-.411,1.538,1.538,0,0,0,.432-1.17V-2.6a1.456,1.456,0,0,0-.443-1.138,2.143,2.143,0,0,0-1.455-.4H77.8v3.2Zm-.063-6.05A1.985,1.985,0,0,0,80.522-7.3,1.245,1.245,0,0,0,80.9-8.317V-8.4a1.265,1.265,0,0,0-.39-1.012,1.939,1.939,0,0,0-1.275-.337H77.8v2.762Z" transform="translate(-21303.518 -23107.242)"/>
  </g>
</svg>
